<svg width="520" height="309" viewBox="0 0 520 309" fill="none" xmlns="http://www.w3.org/2000/svg">
<path d="M503.635 163.61C503.661 163.704 503.721 163.769 503.885 163.825C507.315 166.656 510.804 169.347 514 172.317C516.784 174.904 519.1 177.887 519.927 181.633C520.038 182.135 519.999 182.667 519.964 183.272C513.548 180.395 506.782 178.607 499.761 176.972C499.315 176.186 499.021 175.539 498.805 174.833C499.732 174.19 499.305 173.601 498.851 173.061C497.117 170.999 495.483 168.848 493.593 166.92C486.265 159.442 477.347 153.993 467.477 150.115C455.962 145.59 444.203 141.616 432.545 137.415C429.568 136.343 426.572 135.318 423.627 134.164C424.308 131.978 424.947 129.9 425.7 127.833C426.816 128.185 427.824 128.51 428.817 128.87C433.206 130.458 437.59 132.056 442.05 133.726C446.558 135.551 450.994 137.301 455.521 139.108C458.783 140.507 461.952 141.849 465.197 143.261C466.17 143.719 467.067 144.107 468.056 144.553C471.438 146.121 474.728 147.632 478.019 149.143C478.867 149.594 479.714 150.045 480.756 150.571C483.695 152.074 486.501 153.407 489.169 154.953C494.035 157.772 498.818 160.717 503.635 163.61Z" fill="#4A96FE"/>
<path d="M114.711 307.985C114.977 307.888 115.333 307.86 115.824 307.834C115.958 307.836 115.952 307.952 115.949 308.01C115.565 308.064 115.183 308.059 114.711 307.985Z" fill="#4A96FE"/>
<path d="M498.727 174.892C499.021 175.539 499.315 176.186 499.653 176.926C495.301 176.396 490.907 175.755 486.507 175.157C485.106 174.967 483.691 174.816 482.278 174.773C477.917 174.642 473.536 174.287 469.198 174.541C462.442 174.937 455.691 175.596 448.98 176.442C436.49 178.017 424.393 181.161 412.524 185.103C409.181 186.213 405.867 187.404 402.422 188.55C410.418 172.308 416.164 155.239 422.269 138.297C422.48 137.714 422.614 137.105 422.894 136.381C429.029 138.252 435.065 140.221 441.076 142.258C451.01 145.625 460.999 148.872 470.449 153.369C481.064 158.42 490.537 164.784 497.359 174.194C497.619 174.553 498.262 174.665 498.727 174.892Z" fill="#007DFE"/>
<path d="M498.805 174.833C498.262 174.665 497.619 174.553 497.359 174.194C490.537 164.784 481.064 158.42 470.449 153.369C460.999 148.872 451.01 145.625 441.076 142.258C435.065 140.221 429.028 138.252 422.888 136.268C421.43 135.771 420.107 135.206 418.742 134.755C411.209 132.268 403.666 129.809 395.964 127.238C395.628 126.74 395.454 126.344 395.385 125.889C396.065 125.812 396.696 125.638 397.208 125.799C402.092 127.339 406.954 128.941 411.827 130.512C415.743 131.775 419.666 133.019 423.585 134.272C426.572 135.318 429.568 136.343 432.545 137.415C444.203 141.616 455.962 145.59 467.477 150.115C477.347 153.993 486.265 159.442 493.594 166.92C495.483 168.848 497.117 170.999 498.851 173.061C499.306 173.601 499.732 174.19 498.805 174.833Z" fill="#1B313C"/>
<path d="M269.11 252.822C267.546 249.606 266.056 246.33 264.542 243C268.06 240.567 271.485 238.199 275.115 235.688C276.675 239.597 278.177 243.358 279.706 247.229C276.218 249.146 272.701 250.954 269.11 252.822Z" fill="#FBFBFB"/>
<path d="M395.28 125.948C395.454 126.344 395.628 126.74 395.851 127.218C395.808 128.223 395.565 129.158 395.648 130.067C396.093 134.985 396.643 139.895 397.112 144.811C397.652 150.487 398.162 156.165 398.652 161.845C399.081 166.816 399.464 171.791 399.866 176.894C399.787 177.172 399.708 177.319 399.55 177.622C399.269 177.921 399.067 178.064 398.799 178.148C398.645 177.917 398.557 177.743 398.417 177.468C398.332 177.812 398.283 178.009 398.235 178.205C398.177 177.086 398.368 175.989 398.264 174.917C397.955 171.741 397.447 168.583 397.166 165.406C396.579 158.753 396.087 152.093 395.558 145.436C395.438 143.926 395.386 142.41 395.196 140.909C395 139.373 394.525 137.86 394.437 136.324C394.293 133.813 394.364 131.292 394.354 128.649C394.345 128.105 394.326 127.688 394.314 127.175C394.312 126.891 394.302 126.701 394.312 126.392C394.232 125.558 394.134 124.845 394.036 124.014C393.944 123.02 393.853 122.144 393.767 121.174C393.767 120.956 393.761 120.831 393.752 120.582C393.739 119.88 393.73 119.303 393.734 118.615C393.856 118.165 393.965 117.827 394.152 117.514C394.293 117.618 394.357 117.698 394.404 117.905C394.684 120.671 394.982 123.31 395.28 125.948ZM394.799 136.64C394.816 136.57 394.833 136.5 394.851 136.431C394.808 136.475 394.766 136.52 394.799 136.64Z" fill="#013574"/>
<path d="M299.865 236.88C302.399 234.976 305.049 233.058 307.799 231.066C308.053 231.678 308.248 232.146 308.476 232.705C305.667 234.153 302.824 235.509 299.865 236.88Z" fill="#ECECEC"/>
<path d="M402.254 188.556C402.272 188.55 402.235 188.563 402.254 188.556Z" fill="#007DFE"/>
<path d="M420.855 126.052C422.379 126.593 423.903 127.135 425.507 127.749C424.947 129.9 424.308 131.978 423.627 134.164C419.665 133.019 415.743 131.774 411.827 130.512C406.954 128.941 402.092 127.338 397.208 125.799C396.696 125.638 396.065 125.812 395.385 125.889C394.982 123.309 394.684 120.671 394.52 117.91C397.511 118.624 400.368 119.46 403.33 120.348C406.289 121.285 409.142 122.169 412.078 123.126C415.059 124.15 417.957 125.101 420.855 126.052Z" fill="#295A9C"/>
<path d="M120.752 235.466C122.121 236.758 123.392 237.999 124.714 239.192C125.728 240.106 126.072 241.182 125.342 242.291C124.172 244.066 123.051 245.938 121.527 247.422C118.676 250.2 115.76 252.988 112.497 255.306C106.598 259.496 100.562 263.549 94.3277 267.279C87.5935 271.308 80.379 274.481 72.5527 276.285C69.8364 276.911 67.428 276.066 65.303 274.851C60.1985 271.934 55.0114 269.051 50.3429 265.576C44.4293 261.174 38.933 256.264 33.3925 251.436C31.5895 249.864 30.1426 247.909 28.6629 246.038C27.4255 244.473 27.5503 243.291 29.3324 242.15C31.459 240.789 33.7222 239.534 36.0906 238.605C46.4083 234.554 57.1893 231.861 68.0208 229.382C79.2206 226.818 90.4699 224.446 101.697 221.99C102.681 221.774 103.484 221.879 104.35 222.56C109.206 226.382 114.138 230.118 119.031 233.897C119.618 234.351 120.129 234.893 120.752 235.466Z" fill="#4996FF"/>
<path d="M394.354 128.649C394.05 128.536 393.526 128.321 393.495 128.055C393.131 124.94 392.859 121.816 392.527 118.698C392.06 114.307 391.561 109.919 391.078 105.529C390.75 102.553 390.423 99.5777 390.101 96.6015C389.755 93.3904 389.414 90.1787 388.992 86.8825C389.219 86.2163 389.525 85.6348 389.938 85.0302C390.045 85.0071 390.1 85.0365 390.143 85.1573C390.452 87.2436 390.717 89.209 390.906 91.2119C390.902 91.4648 390.974 91.6801 391.092 92.0051C391.195 92.6599 391.251 93.2051 391.216 93.8147C391.266 94.4429 391.407 95.0067 391.594 95.679C391.664 96.2545 391.688 96.7214 391.6 97.2409C391.547 99.0839 391.588 100.875 391.698 102.663C391.706 102.8 392.195 102.911 392.485 103.1C392.51 103.167 392.43 103.286 392.341 103.396C392.147 104.057 391.922 104.614 391.956 105.157C392.127 107.9 392.346 110.64 392.587 113.378C392.691 114.563 392.889 115.74 393.045 116.921C393.16 116.935 393.276 116.95 393.392 116.965C393.537 116.711 393.682 116.456 393.885 116.299C393.987 116.76 394.031 117.125 394.075 117.489C393.965 117.827 393.856 118.165 393.623 118.629C393.01 119.472 392.781 120.159 393.755 120.707C393.761 120.831 393.767 120.956 393.679 121.258C393.611 122.352 392.902 123.378 394.036 124.132C394.134 124.845 394.232 125.558 394.221 126.394C394.176 126.768 394.241 127.019 394.307 127.27C394.326 127.688 394.345 128.105 394.354 128.649Z" fill="#01499D"/>
<path d="M196.124 250.169C194.7 246.945 193.355 243.808 191.943 240.697C191.608 239.959 191.655 239.558 192.404 239.057C195.585 236.925 198.708 234.716 202.033 232.41C203.884 236.96 205.699 241.421 207.56 245.996C204.109 248.125 200.692 250.234 197.121 252.438C196.78 251.651 196.479 250.959 196.124 250.169Z" fill="#FCFDFD"/>
<path d="M164.652 223.442C166.024 226.79 167.365 230.033 168.618 233.305C168.765 233.687 168.595 234.471 168.285 234.67C165.147 236.68 161.95 238.608 158.598 240.664C157.972 239.237 157.382 237.896 156.794 236.555C155.675 234.001 154.586 231.434 153.42 228.899C153.106 228.217 153.106 227.821 153.8 227.352C157.011 225.181 160.183 222.958 163.493 220.668C163.878 221.606 164.236 222.475 164.652 223.442Z" fill="#FCFDFD"/>
<path d="M232.978 240.677C234.864 239.372 236.664 238.133 238.568 236.822C240.417 241.387 242.231 245.865 244.073 250.41C240.587 252.56 237.205 254.645 233.655 256.834C232.571 254.389 231.526 252.043 230.49 249.693C229.812 248.152 229.197 246.583 228.454 245.071C228.077 244.304 228.224 243.898 228.955 243.44C230.305 242.594 231.584 241.647 232.978 240.677Z" fill="#FCFDFD"/>
<path d="M398.047 179.755C398.301 179.219 398.572 178.803 398.854 178.296C399.067 178.064 399.269 177.921 399.52 177.7C399.768 178.821 400.081 180.015 400.141 181.221C400.237 183.173 400.254 185.138 400.107 187.085C400.069 187.589 399.317 188.428 398.865 188.446C397.825 188.485 398.179 187.669 398.19 186.981C398.23 184.613 398.118 182.243 398.047 179.755Z" fill="#0F2027"/>
<path d="M394.036 124.014C392.903 123.379 393.612 122.353 393.674 121.352C393.853 122.144 393.944 123.021 394.036 124.014Z" fill="#0062D1"/>
<path d="M393.751 120.582C392.781 120.159 393.009 119.472 393.61 118.74C393.73 119.303 393.739 119.88 393.751 120.582Z" fill="#0062D1"/>
<path d="M394.314 127.175C394.242 127.019 394.176 126.768 394.202 126.514C394.302 126.701 394.312 126.891 394.314 127.175Z" fill="#0062D1"/>
<path d="M394.761 136.602C394.766 136.52 394.808 136.475 394.851 136.431C394.834 136.5 394.817 136.57 394.761 136.602Z" fill="#0062D1"/>
<path d="M392.341 103.396C392.914 107.517 393.398 111.748 393.855 116.091C393.682 116.456 393.537 116.71 393.392 116.965C393.276 116.95 393.161 116.935 393.045 116.921C392.889 115.74 392.691 114.563 392.587 113.378C392.346 110.64 392.127 107.9 391.956 105.157C391.923 104.614 392.147 104.057 392.341 103.396Z" fill="#0062D1"/>
<path d="M391.6 97.241C391.97 99.058 392.228 100.927 392.472 102.916C392.195 102.911 391.707 102.8 391.698 102.663C391.588 100.876 391.547 99.084 391.6 97.241Z" fill="#0062D1"/>
<path d="M391.216 93.8145C391.397 94.2816 391.485 94.8132 391.561 95.4575C391.407 95.0065 391.266 94.4427 391.216 93.8145Z" fill="#0062D1"/>
<path d="M390.906 91.2119C391.022 91.3552 391.06 91.536 391.073 91.8061C390.974 91.6801 390.902 91.4648 390.906 91.2119Z" fill="#0062D1"/>
<path d="M502.589 203.039C502.284 203.274 502.042 203.424 501.76 203.649C482.455 216.535 460.759 224.885 439.301 233.606C406.777 246.825 373.533 258.291 339.887 268.709C303.144 280.087 266.011 290.21 228.415 298.794C212.857 302.346 197.171 305.311 181.273 307.177C170.923 308.392 160.53 309.092 150.021 308.99C160.513 306.047 171.1 303.294 181.634 300.374C191.91 297.525 202.057 294.227 211.685 289.82C222.861 284.705 233.804 279.128 244.755 273.59C257.365 267.213 269.861 260.638 282.429 254.188C291.389 249.591 300.359 245.008 309.377 240.512C319.069 235.679 328.813 230.938 338.552 226.19C346.358 222.385 354.126 218.504 362.026 214.879C374.259 209.266 386.45 203.538 398.928 198.444C407.277 195.036 416.002 192.362 424.727 189.886C431.438 187.981 438.365 186.645 445.281 185.518C451.644 184.482 458.104 183.749 464.551 183.455C472.14 183.109 479.75 183.252 487.34 184.164C494.544 185.03 501.613 186.346 508.532 188.398C510.898 189.099 513.244 189.862 515.599 190.597C512.832 193.49 510.128 196.439 507.271 199.249C505.879 200.618 504.201 201.729 502.589 203.039Z" fill="#00285C"/>
<path d="M515.694 190.555C513.244 189.862 510.898 189.099 508.532 188.398C501.613 186.346 494.544 185.03 487.34 184.164C479.749 183.252 472.14 183.109 464.551 183.455C458.104 183.749 451.644 184.482 445.281 185.518C438.365 186.644 431.438 187.981 424.727 189.886C416.002 192.362 407.276 195.036 398.928 198.444C386.45 203.538 374.259 209.266 362.026 214.879C354.126 218.504 346.358 222.385 338.552 226.19C328.813 230.938 319.069 235.679 309.377 240.512C300.359 245.008 291.389 249.59 282.429 254.188C269.861 260.637 257.364 267.213 244.755 273.59C233.804 279.128 222.861 284.705 211.685 289.82C202.057 294.227 191.91 297.525 181.634 300.374C171.1 303.294 160.513 306.047 149.897 308.954C143.203 308.948 136.559 308.922 129.919 308.755C125.352 308.64 120.791 308.328 116.089 308.028C115.952 307.952 115.958 307.836 116.1 307.842C122.307 307.441 128.416 307.336 134.427 306.561C144.883 305.214 155.104 302.746 165.175 299.782C183.254 294.461 200.718 287.739 217.37 279.205C228.258 273.625 239.122 268.001 249.984 262.374C251.75 261.459 253.447 260.424 255.244 259.385C256.076 259.201 256.898 259.203 257.593 258.924C258.745 258.461 259.824 257.831 260.919 257.246C263.629 255.799 266.33 254.337 269.11 252.822C272.701 250.954 276.218 249.146 279.857 247.312C280.264 247.189 280.569 247.124 280.833 246.989C284.67 245.029 288.525 243.096 292.329 241.08C294.84 239.749 297.278 238.294 299.865 236.88C302.824 235.509 305.667 234.153 308.619 232.775C316.684 228.816 324.619 224.839 332.604 220.952C344.247 215.284 355.858 209.551 367.61 204.088C378.443 199.052 389.447 194.34 400.364 189.463C400.75 189.29 401.304 188.854 401.286 188.568C401.055 184.904 400.742 181.244 400.414 177.586C400.396 177.386 400.055 177.211 399.866 176.894C399.464 171.791 399.081 166.816 398.652 161.845C398.162 156.165 397.652 150.487 397.112 144.811C396.643 139.895 396.093 134.985 395.648 130.067C395.565 129.158 395.808 128.223 396.013 127.32C403.666 129.809 411.209 132.268 418.742 134.755C420.107 135.206 421.43 135.771 422.778 136.396C422.614 137.105 422.479 137.713 422.269 138.297C416.164 155.239 410.417 172.308 402.253 188.556C402.237 188.561 402.27 188.551 402.422 188.55C405.867 187.404 409.181 186.213 412.524 185.102C424.393 181.161 436.489 178.017 448.98 176.442C455.691 175.596 462.442 174.937 469.198 174.541C473.536 174.287 477.917 174.641 482.278 174.773C483.691 174.816 485.106 174.967 486.507 175.157C490.907 175.755 495.301 176.396 499.805 177.065C506.782 178.607 513.548 180.395 519.898 183.36C518.529 185.744 517.159 188.128 515.694 190.555Z" fill="#01499D"/>
<path d="M15.1563 168.119C19.2679 159.877 24.0436 152 29.6836 144.593C42.5067 127.754 58.5626 114.216 77.1959 103.305C77.7993 102.952 78.397 102.59 79.1605 102.134C80.1395 101.565 80.9553 101.094 81.8766 100.603C87.5003 97.8801 93.0185 95.1766 98.6404 92.4553C99.9159 91.9093 101.088 91.3812 102.369 90.8383C103.407 90.432 104.335 90.0406 105.348 89.6448C105.495 89.5643 105.558 89.4883 105.613 89.4282C105.605 89.4442 105.64 89.4564 105.752 89.4427C112.207 87.2998 118.513 85.0641 124.907 83.0812C128.751 81.8892 132.733 81.0912 136.677 80.2378C136.654 80.6842 136.624 81.0125 136.554 81.3331C135.896 84.3746 135.23 87.4148 134.486 90.5012C134.175 90.8064 133.945 91.0657 133.692 91.2198C132.981 89.9999 132.025 90.6706 131.232 90.8678C118.186 94.1104 105.551 98.4131 93.444 104.038C79.9224 110.321 67.3825 118.002 56.271 127.641C40.5095 141.313 28.6953 157.612 20.3247 176.139C13.1424 192.036 8.73331 208.466 10.0003 225.928C10.6667 235.113 12.9936 243.896 17.6566 252.008C29.2381 272.155 47.0568 285.481 69.7254 293.091C86.3408 298.668 103.797 300.575 121.23 302.357C125.572 302.801 129.929 303.102 134.203 303.555C128.99 304.669 123.848 305.677 118.719 306.738C117.176 307.056 115.668 307.523 114.144 307.921C108.888 307.81 103.6 308.004 98.382 307.526C87.4448 306.523 76.7493 304.253 66.2673 301.137C54.2327 297.561 42.8482 292.713 32.589 285.7C17.1249 275.128 6.65051 261.346 2.2498 243.7C0.02579 234.783 -0.525152 225.74 0.489803 216.638C0.960823 212.414 1.72538 208.219 2.34938 203.895C2.36952 203.655 2.39715 203.53 2.42098 203.311C3.84251 198.296 5.00882 193.292 6.75797 188.477C9.00324 182.296 11.717 176.265 14.2283 170.169C14.3564 169.858 14.4781 169.545 14.6982 169.076C14.9145 168.653 15.0354 168.386 15.1563 168.119ZM6.60404 198.954C9.22725 201.283 11.0943 200.808 11.9458 197.581C12.9947 193.604 13.8347 189.569 15.0989 185.655C17.8146 177.246 21.8732 169.381 26.5056 161.767C31.029 154.332 36.0401 147.215 41.8196 140.586C43.9096 138.188 45.9721 135.769 48.0007 133.325C48.815 132.344 48.6742 131.352 47.6536 130.535C46.2306 129.397 45.0087 129.257 44.018 130.218C42.3565 131.83 40.5748 133.376 39.182 135.181C33.6984 142.287 28.0953 149.331 23.0344 156.701C19.6613 161.613 16.5792 166.838 14.3592 172.282C11.4064 179.523 9.38306 187.103 7.05005 194.562C6.63082 195.903 6.64491 197.363 6.60404 198.954ZM52.7004 128.36C55.0051 126.667 57.3325 125.002 59.5964 123.262C60.0895 122.884 60.6743 122.359 59.9744 121.574C58.2735 119.665 56.7209 119.53 54.8058 121.198C54.5102 121.456 54.1655 121.663 53.8666 121.917C51.9322 123.564 50.0042 125.217 48.0977 126.847C49.65 128.825 50.5014 129.108 52.7004 128.36Z" fill="#4A96FE"/>
<path d="M14.5044 69.3208C14.543 69.5959 14.4977 69.9369 14.3677 70.344C14.3287 70.069 14.3746 69.7279 14.5044 69.3208Z" fill="#ECECEC"/>
<path d="M14.8187 68.7188C14.8445 68.8343 14.7932 68.9983 14.6647 69.2099C14.6389 69.0941 14.6902 68.9306 14.8187 68.7188Z" fill="#E8E8E8"/>
<path d="M14.5903 79.3718C14.6852 79.4264 14.7836 79.573 14.8895 79.8097C14.796 79.7545 14.6949 79.6092 14.5903 79.3718Z" fill="#E8E8E8"/>
<path d="M14.8427 0C14.8965 0.0237896 14.8959 0.0747195 14.8962 0.202176C14.8608 0.194842 14.8246 0.110965 14.8427 0Z" fill="#E8E8E8"/>
<path d="M14.8427 0.573486C14.8968 0.597329 14.8966 0.648925 14.8967 0.778083C14.8608 0.77082 14.8246 0.686013 14.8427 0.573486Z" fill="#ECECEC"/>
<path d="M114.223 307.932C115.668 307.523 117.176 307.056 118.718 306.737C123.848 305.677 128.99 304.669 134.326 303.539C136.748 303.014 138.971 302.593 141.336 302.144C133.106 301.451 125.106 300.842 117.122 300.092C106.2 299.065 95.3881 297.385 84.656 295.194C64.8296 291.147 47.5182 282.824 33.2715 269.043C16.316 252.642 9.40994 233.087 12.2202 210.429C13.3981 200.932 15.9366 191.735 19.5396 182.809C20.8846 179.477 22.5225 176.25 24.0353 173.089C23.3152 175.184 22.4874 177.137 21.8755 179.148C19.5348 186.842 17.0837 194.511 15.0311 202.273C13.7124 207.26 13.2668 212.393 14.2778 217.551C15.4076 223.314 19.1315 227.413 25.1111 228.29C28.5079 228.789 32.1465 228.634 35.5565 228.098C47.0812 226.287 58.18 222.923 69.079 219.035C78.8881 215.536 88.612 211.82 98.3213 208.079C103.857 205.946 109.301 203.599 114.749 201.27C115.298 201.036 115.797 200.318 115.961 199.735C116.471 197.916 116.809 196.053 117.223 194.306C117.405 194.655 117.578 194.905 117.732 195.256C117.709 195.56 117.705 195.765 117.588 196.004C117.44 196.637 117.406 197.235 117.331 197.872C117.267 198.007 117.244 198.102 117.116 198.292C117.055 198.936 117.099 199.488 117.123 200.151C117.111 200.561 117.118 200.861 117.008 201.186C116.848 201.719 116.806 202.227 116.747 202.816C116.693 203.152 116.657 203.406 116.513 203.739C116.449 204.188 116.491 204.557 116.512 205.023C116.422 205.588 116.354 206.057 116.191 206.593C116.139 206.849 116.183 207.037 116.208 207.348C116.185 208.044 116.182 208.618 116.093 209.206C115.979 209.418 115.951 209.616 115.903 209.928C115.805 210.598 115.677 211.152 115.658 211.71C115.626 212.608 115.666 213.509 115.657 214.521C115.878 215.241 116.003 215.921 116.375 216.447C121.338 223.476 127.818 229.098 135.001 234.039C147.454 242.606 161.349 248.332 176.085 252.364C193.849 257.224 212.056 259.317 230.485 259.733C238.708 259.918 246.945 259.558 255.176 259.445C253.447 260.425 251.75 261.459 249.984 262.374C239.122 268.001 228.258 273.625 217.37 279.205C200.719 287.739 183.254 294.461 165.175 299.782C155.104 302.746 144.883 305.214 134.427 306.561C128.416 307.336 122.307 307.442 115.966 307.84C115.333 307.86 114.977 307.888 114.62 307.917C114.514 307.926 114.408 307.934 114.223 307.932ZM120.675 235.394C120.129 234.893 119.618 234.351 119.031 233.897C114.138 230.118 109.206 226.382 104.351 222.561C103.484 221.879 102.681 221.775 101.697 221.99C90.47 224.446 79.2207 226.819 68.0208 229.382C57.1893 231.861 46.4084 234.554 36.0906 238.605C33.7223 239.535 31.459 240.789 29.3324 242.151C27.5504 243.291 27.4256 244.473 28.663 246.038C30.1427 247.909 31.5896 249.865 33.3925 251.436C38.933 256.265 44.4294 261.174 50.343 265.576C55.0115 269.051 60.1985 271.935 65.303 274.852C67.4281 276.066 69.8364 276.911 72.5527 276.285C80.3791 274.482 87.5935 271.309 94.3278 267.279C100.562 263.549 106.598 259.497 112.497 255.306C115.76 252.989 118.676 250.201 121.527 247.423C123.051 245.938 124.172 244.066 125.342 242.291C126.073 241.182 125.728 240.106 124.714 239.192C123.392 238 122.121 236.758 120.675 235.394Z" fill="#007DFE"/>
<path d="M347.834 35.0608C349.095 35.4495 350.237 35.832 351.575 36.2913C355.184 37.5497 358.598 38.7314 362.089 39.9811C362.963 40.3157 363.76 40.5821 364.622 40.9371C368.23 42.7813 371.838 44.4314 375.299 46.3194C379.519 48.6209 382.669 51.833 383.982 56.4113C384.471 58.1152 385.047 59.7968 385.576 61.6003C386.452 65.5714 387.335 69.4308 388.213 73.4151C388.82 77.3623 389.432 81.1846 389.938 85.0301C389.525 85.6347 389.219 86.2162 388.822 86.8469C385.089 93.1359 381.602 99.4609 377.774 105.597C370.168 117.792 361.701 129.439 352.244 140.449C345.895 147.841 339.368 155.075 331.917 161.501C326.541 166.139 321.093 170.724 315.408 175.016C303.127 184.288 289.248 190.861 274.413 195.664C265.452 198.565 256.299 200.772 246.911 202.137C239.802 203.17 232.681 203.968 225.491 204.046C217.783 204.129 210.069 204.218 202.399 203.215C198.198 202.666 193.939 202.424 189.787 201.654C183.196 200.43 176.629 199.038 170.131 197.433C158.625 194.591 147.51 190.669 136.796 185.81C131.591 183.449 126.567 180.733 121.449 178.052C121.533 177.075 121.611 176.222 121.726 175.373C122.454 169.99 123.138 164.6 123.939 159.226C124.873 152.958 125.882 146.699 126.911 140.444C128.057 133.474 129.235 126.509 130.451 119.55C131.272 114.85 132.181 110.164 133.126 105.42C133.235 105.2 133.267 105.032 133.308 104.745C133.433 103.855 133.55 103.083 133.746 102.248C133.861 101.934 133.896 101.681 133.936 101.336C133.949 101.12 133.958 100.996 134.047 100.812C134.164 100.497 134.2 100.244 134.24 99.8978C134.251 99.6822 134.258 99.559 134.352 99.3612C135.767 93.4592 137.104 87.6334 138.415 81.8022C138.598 80.9881 138.916 80.0855 137.836 79.4221C138.688 76.5363 139.531 73.7654 140.45 70.9213C143.336 64.0198 147.192 57.7582 152.126 51.9883C156.425 47.1837 161.439 43.293 167.016 39.881C172.671 36.6272 178.584 34.1183 184.86 32.468C190.663 30.9421 196.543 29.6759 202.517 28.2874C204.474 27.8863 206.294 27.4536 208.133 27.1067C219.218 25.0153 230.303 22.9212 241.399 20.8821C243.925 20.4178 246.496 20.1668 249.18 19.8332C250.242 19.7426 251.172 19.6365 252.241 19.5494C257.578 19.4237 262.776 19.279 267.973 19.1343C268.897 19.189 269.821 19.2438 270.882 19.2797C275.339 19.8105 279.666 20.3091 283.976 20.9189C298.03 22.9074 311.911 25.7091 325.653 29.0912C333.053 30.9127 340.364 33.0563 347.834 35.0608ZM339.7 45.6669C340.157 45.6657 340.618 45.6228 341.069 45.6696C348.115 46.4002 355.157 47.1497 362.203 47.8725C363.077 47.9622 364.379 48.6271 364.606 47.2894C364.816 46.0476 363.358 46.2172 362.578 46.1055C357.721 45.4098 352.85 44.8087 347.946 43.9835C347.454 43.5956 347.025 43.0577 346.458 42.8449C343.638 41.786 340.845 40.5858 337.925 39.8518C329.231 37.6666 320.518 35.5247 311.743 33.6587C304.902 32.2041 297.981 31.0465 291.051 30.0203C285.47 29.1938 279.836 28.4955 274.2 28.2296C268.737 27.9719 263.234 28.2229 257.76 28.4688C253.781 28.6475 249.779 28.9607 245.859 29.6027C237.455 30.9792 229.02 32.3083 220.739 34.2045C209.137 36.8611 197.635 39.9207 186.145 42.9917C178.173 45.1226 170.318 47.6073 163.884 53.1631C162.881 52.9816 162.418 53.4322 162.473 54.3309C162.539 55.4242 162.567 56.5383 162.819 57.5998C164.179 63.3284 167.812 67.5703 172.92 70.7183C179.22 74.6017 186.336 75.5333 193.65 75.1935C207.234 74.5624 220.38 71.7515 233.091 67.2973C243.881 63.5161 254.455 59.182 265.278 55.4901C271.595 53.3353 278.213 51.9613 284.838 50.2539C284.94 50.243 285.02 50.1983 285.302 50.0568C285.61 50.0227 285.918 49.9886 286.373 49.9647C286.475 49.9466 286.554 49.8957 286.831 49.7594C287.059 49.7449 287.287 49.7304 287.629 49.8589C287.904 49.7369 288.179 49.6149 288.65 49.4514C288.782 49.4507 288.915 49.4499 289.212 49.6071C289.461 49.6364 289.715 49.7133 289.958 49.6879C295.273 49.1307 300.58 48.4911 305.904 48.0156C311.235 47.5394 316.579 47.184 321.923 46.851C327.425 46.508 332.934 46.26 338.438 45.9544C338.768 45.936 339.09 45.7761 339.7 45.6669ZM154.428 58.3802C158.025 52.1248 163.471 47.6353 169.883 44.0849C176.449 40.4501 183.545 38.0424 190.846 36.1144C191.55 35.9285 192.528 35.7872 192.196 34.7657C191.875 33.7744 191.001 34.1228 190.276 34.3174C183.38 36.1692 176.667 38.4475 170.337 41.6737C160.466 46.7047 153.336 53.9643 149.55 64.0101C148.67 66.3467 147.679 68.6466 146.532 70.9977C145.598 72.9895 144.294 74.904 143.804 76.9882C142.57 82.2301 141.607 87.5341 140.714 92.8399C139.577 99.6022 138.608 106.39 137.58 113.168C136.774 118.487 135.915 123.8 135.215 129.13C134.502 134.56 133.855 140.001 133.359 145.451C132.837 151.194 132.533 156.954 132.122 162.705C131.964 164.923 132.981 166.665 134.516 168.239C138.652 172.484 143.905 175.226 149.274 177.72C156.93 181.277 164.866 184.184 173.466 184.953C177.946 185.354 180.699 184.693 182.478 180.848C185.892 173.466 187.17 165.586 188.561 157.747C189.485 152.543 190.087 147.287 190.783 142.049C191.41 137.329 192.026 132.607 192.543 127.876C193.025 123.472 193.421 119.058 193.763 114.642C194.227 108.654 194.608 102.66 195.015 96.6673C195.154 94.62 195.137 92.5539 195.444 90.5305C195.583 89.6147 195.367 89.1598 194.595 88.8334C192.654 88.0128 190.706 87.2069 188.749 86.4216C181.938 83.6881 175.086 81.0421 168.326 78.2006C165.733 77.1108 163.337 75.6127 162.144 72.9384C160.85 70.0375 159.429 67.1856 158.196 64.2629C157.322 62.1918 156.667 60.0385 155.931 57.9691C155.345 58.1941 154.856 58.3815 154.428 58.3802ZM195.115 32.9819C195.407 33.4352 195.796 34.3125 195.977 34.2761C197.823 33.9045 199.647 33.4184 201.443 32.8638C201.675 32.7921 201.904 32.0724 201.778 31.7956C201.656 31.5252 201.022 31.2291 200.71 31.3042C198.879 31.7445 197.077 32.2903 195.115 32.9819Z" fill="#007DFE"/>
<path d="M255.244 259.385C246.945 259.558 238.708 259.918 230.485 259.733C212.056 259.317 193.849 257.224 176.085 252.364C161.349 248.332 147.454 242.606 135.001 234.039C127.818 229.098 121.338 223.476 116.375 216.447C116.003 215.921 115.878 215.241 115.78 214.522C116.334 214.104 117.064 213.834 117.11 213.485C117.505 210.474 117.771 207.449 118.085 204.429C118.296 202.4 118.501 200.369 118.745 198.343C119.232 194.294 119.744 190.248 120.324 186.264C122.649 188.979 124.717 191.791 127.175 194.257C138.071 205.187 151.268 212.954 165.859 218.72C179.325 224.042 193.373 227.294 207.825 229.149C216.743 230.294 225.697 230.884 234.684 231.027C239.304 231.1 243.93 230.969 248.549 230.823C253.014 230.682 257.502 230.627 261.93 230.138C272.605 228.958 283.291 227.775 293.901 226.175C309.968 223.752 325.672 219.871 340.872 214.367C362.478 206.542 382.521 196.382 398.047 179.755C398.118 182.243 398.23 184.613 398.19 186.981C398.178 187.669 397.825 188.485 398.865 188.446C399.317 188.428 400.069 187.589 400.107 187.085C400.253 185.138 400.237 183.173 400.141 181.221C400.081 180.015 399.768 178.821 399.599 177.544C399.708 177.319 399.787 177.172 399.865 177.025C400.055 177.211 400.396 177.386 400.414 177.586C400.742 181.244 401.055 184.904 401.286 188.568C401.304 188.854 400.75 189.29 400.364 189.463C389.447 194.34 378.443 199.052 367.61 204.088C355.858 209.551 344.247 215.284 332.604 220.952C324.619 224.839 316.684 228.816 308.584 232.684C308.248 232.146 308.053 231.678 307.799 231.066C305.049 233.058 302.399 234.976 299.748 236.895C297.278 238.294 294.84 239.749 292.329 241.08C288.525 243.096 284.67 245.029 280.832 246.989C280.568 247.124 280.264 247.189 279.828 247.203C278.176 243.358 276.675 239.597 275.115 235.688C271.485 238.199 268.06 240.567 264.542 243C266.056 246.33 267.546 249.606 269.035 252.882C266.33 254.337 263.629 255.799 260.919 257.246C259.824 257.831 258.745 258.461 257.593 258.924C256.898 259.203 256.076 259.201 255.244 259.385ZM133.882 206.756C133.246 205.266 132.611 203.777 131.957 202.243C131.117 202.747 130.409 203.172 129.651 203.397C126.891 200.491 123.388 198.176 121.617 194.343C120.734 199.011 120.331 203.606 119.548 208.142C118.856 212.151 120.007 215.423 122.542 218.637C126.817 224.057 131.558 228.956 137.739 232.465C139.751 233.607 141.909 234.522 144.172 235.625C145.024 233.522 145.878 231.734 146.475 229.873C147.804 225.729 149.044 221.559 150.203 217.37C150.341 216.87 149.914 215.828 149.468 215.647C144.25 213.522 139.697 210.407 135.11 207.332C134.801 207.124 134.387 207.056 133.882 206.756ZM196.179 250.266C196.479 250.959 196.78 251.651 197.121 252.438C200.692 250.234 204.11 248.125 207.56 245.996C205.699 241.421 203.884 236.96 202.033 232.41C198.708 234.716 195.585 236.925 192.404 239.057C191.655 239.558 191.608 239.959 191.943 240.697C193.355 243.808 194.7 246.945 196.179 250.266ZM164.593 223.344C164.236 222.475 163.878 221.606 163.492 220.668C160.183 222.958 157.011 225.181 153.8 227.352C153.106 227.821 153.106 228.217 153.419 228.899C154.586 231.434 155.675 234.001 156.794 236.555C157.382 237.896 157.972 239.237 158.598 240.664C161.95 238.608 165.147 236.68 168.284 234.67C168.595 234.471 168.765 233.687 168.618 233.305C167.365 230.033 166.024 226.79 164.593 223.344ZM232.893 240.742C231.585 241.647 230.305 242.594 228.955 243.44C228.224 243.898 228.077 244.304 228.454 245.071C229.197 246.583 229.812 248.152 230.491 249.693C231.526 252.043 232.571 254.389 233.655 256.834C237.205 254.645 240.588 252.559 244.073 250.41C242.231 245.865 240.417 241.387 238.568 236.822C236.664 238.133 234.864 239.372 232.893 240.742Z" fill="#1A2F36"/>
<path d="M24.0268 172.975C22.5225 176.25 20.8846 179.477 19.5396 182.809C15.9366 191.735 13.3981 200.932 12.2202 210.429C9.40994 233.087 16.316 252.642 33.2715 269.043C47.5182 282.824 64.8296 291.147 84.656 295.194C95.3881 297.385 106.2 299.065 117.122 300.092C125.106 300.842 133.106 301.451 141.336 302.144C138.971 302.593 136.748 303.014 134.402 303.452C129.929 303.102 125.572 302.801 121.23 302.357C103.797 300.575 86.3407 298.668 69.7254 293.091C47.0568 285.481 29.2381 272.155 17.6565 252.008C12.9935 243.896 10.6667 235.113 10.0003 225.928C8.73328 208.466 13.1424 192.036 20.3247 176.139C28.6952 157.612 40.5094 141.313 56.2709 127.641C67.3825 118.002 79.9224 110.321 93.444 104.038C105.551 98.413 118.186 94.1104 131.232 90.8677C132.025 90.6706 132.981 89.9999 133.673 91.3131C133.679 91.5749 133.681 91.6382 133.63 91.7918C133.081 92.1003 132.608 92.3959 132.088 92.5255C116.358 96.4464 101.257 101.862 86.9941 109.281C68.2298 119.04 52.103 131.673 39.4232 148.048C33.4809 155.722 28.2587 163.801 24.0689 172.559C24.0304 172.769 24.0283 172.892 24.0355 173.004C24.0448 172.995 24.0268 172.975 24.0268 172.975Z" fill="#1B313C"/>
<path d="M6.53149 198.861C6.64491 197.363 6.63082 195.902 7.05005 194.562C9.38306 187.103 11.4064 179.523 14.3592 172.282C16.5792 166.838 19.6613 161.612 23.0344 156.7C28.0953 149.331 33.6984 142.287 39.182 135.181C40.5748 133.376 42.3565 131.83 44.018 130.218C45.0088 129.257 46.2307 129.396 47.6536 130.535C48.6742 131.351 48.815 132.344 48.0007 133.325C45.9721 135.769 43.9096 138.188 41.8196 140.586C36.0401 147.215 31.029 154.332 26.5056 161.767C21.8732 169.381 17.8146 177.246 15.0989 185.655C13.8347 189.569 12.9947 193.604 11.9458 197.58C11.0943 200.808 9.22725 201.282 6.53149 198.861Z" fill="#96BFFE"/>
<path d="M133.683 91.7013C133.681 91.638 133.679 91.5747 133.696 91.418C133.945 91.0654 134.175 90.8062 134.553 90.5969C134.861 91.1558 135.208 91.6843 135.15 92.1697C134.967 93.7016 134.586 95.2118 134.372 96.7415C134.248 97.6286 134.295 98.537 134.266 99.4358C134.258 99.5589 134.251 99.6821 134.145 99.9195C134.02 100.313 133.994 100.593 133.967 100.873C133.958 100.996 133.949 101.12 133.841 101.358C133.718 101.752 133.692 102.031 133.667 102.31C133.55 103.083 133.433 103.855 133.225 104.766C133.107 105.093 133.079 105.283 133.051 105.472C132.181 110.164 131.272 114.85 130.451 119.55C129.235 126.509 128.057 133.474 126.911 140.444C125.882 146.699 124.873 152.958 123.939 159.226C123.138 164.6 122.454 169.99 121.725 175.373C121.611 176.222 121.532 177.075 121.437 178.173C121.334 179.114 121.25 179.81 121.127 180.501C120.819 182.229 120.493 183.955 120.086 185.647C119.776 185.761 119.44 185.867 119.354 186.068C119.094 186.681 118.93 187.331 118.632 187.889C118.615 186.111 118.593 184.399 118.793 182.711C119.203 179.266 119.74 175.835 120.211 172.396C120.765 168.343 121.269 164.283 121.86 160.234C122.492 155.905 123.195 151.584 123.877 147.261C124.723 141.903 125.541 136.541 126.443 131.192C127.266 126.311 128.143 121.438 129.072 116.574C130.393 109.65 131.796 102.739 133.131 95.8166C133.393 94.4582 133.503 93.0737 133.683 91.7013Z" fill="#01499D"/>
<path d="M52.5932 128.41C50.5014 129.107 49.65 128.825 48.0977 126.847C50.0042 125.216 51.9322 123.563 53.8666 121.917C54.1655 121.663 54.5102 121.455 54.8058 121.198C56.7209 119.53 58.2735 119.665 59.9744 121.574C60.6743 122.359 60.0895 122.883 59.5964 123.262C57.3325 125.001 55.0051 126.667 52.5932 128.41Z" fill="#96BFFE"/>
<path d="M134.352 99.3613C134.295 98.5371 134.248 97.6287 134.372 96.7416C134.586 95.2119 134.967 93.7017 135.15 92.1698C135.208 91.6844 134.861 91.1559 134.633 90.5511C135.23 87.4146 135.895 84.3744 136.554 81.333C136.624 81.0124 136.653 80.6841 136.677 80.2376C136.986 79.948 137.319 79.7801 137.74 79.5747C138.916 80.0856 138.597 80.9881 138.414 81.8023C137.104 87.6334 135.767 93.4592 134.352 99.3613Z" fill="#0062D1"/>
<path d="M105.348 89.6446C105.332 89.5792 105.4 89.5094 105.544 89.4258C105.557 89.488 105.494 89.5641 105.348 89.6446Z" fill="white"/>
<path d="M133.63 91.7917C133.503 93.0739 133.393 94.4583 133.131 95.8168C131.796 102.739 130.393 109.65 129.071 116.574C128.143 121.438 127.266 126.311 126.443 131.192C125.541 136.541 124.723 141.903 123.877 147.261C123.194 151.584 122.492 155.905 121.86 160.235C121.268 164.283 120.765 168.343 120.21 172.396C119.74 175.835 119.203 179.266 118.793 182.711C118.593 184.399 118.615 186.111 118.607 187.98C118.665 188.273 118.653 188.398 118.535 188.554C118.426 189.148 118.423 189.71 118.396 190.362C118.361 190.576 118.348 190.699 118.223 190.86C118.066 191.499 118.021 192.101 117.954 192.775C117.845 192.895 117.759 192.944 117.588 192.927C117.393 193.286 117.284 193.71 117.188 194.151C117.201 194.167 117.214 194.207 117.214 194.207C116.809 196.053 116.471 197.916 115.961 199.735C115.797 200.318 115.298 201.036 114.749 201.27C109.301 203.598 103.857 205.946 98.3212 208.079C88.6119 211.82 78.8881 215.536 69.0789 219.035C58.18 222.923 47.0812 226.287 35.5564 228.098C32.1464 228.634 28.5078 228.789 25.1111 228.29C19.1315 227.413 15.4075 223.314 14.2778 217.551C13.2667 212.393 13.7124 207.26 15.031 202.273C17.0837 194.511 19.5348 186.841 21.8754 179.148C22.4874 177.137 23.3151 175.184 24.0353 173.089C24.0268 172.975 24.0447 172.994 24.1087 172.974C24.1502 172.792 24.1277 172.632 24.1052 172.472C28.2587 163.801 33.4809 155.722 39.4232 148.048C52.1029 131.673 68.2297 119.04 86.994 109.28C101.257 101.862 116.358 96.4463 132.088 92.5254C132.608 92.3958 133.081 92.1002 133.63 91.7917Z" fill="#0062D1"/>
<path d="M118.64 188.523C118.652 188.398 118.665 188.273 118.703 188.058C118.93 187.331 119.094 186.682 119.354 186.068C119.44 185.868 119.776 185.761 120.102 185.733C120.219 185.97 120.232 186.085 120.245 186.201C119.744 190.248 119.232 194.294 118.745 198.343C118.501 200.369 118.296 202.4 118.085 204.429C117.771 207.449 117.505 210.475 117.11 213.485C117.064 213.834 116.334 214.104 115.798 214.41C115.666 213.509 115.626 212.608 115.658 211.71C115.677 211.152 115.804 210.598 115.999 209.891C116.136 209.558 116.158 209.375 116.179 209.192C116.182 208.618 116.185 208.044 116.293 207.323C116.36 206.959 116.323 206.742 116.286 206.526C116.354 206.057 116.422 205.588 116.609 204.983C116.692 204.451 116.656 204.055 116.62 203.66C116.657 203.406 116.693 203.152 116.839 202.76C117.007 202.134 117.066 201.647 117.125 201.16C117.118 200.861 117.111 200.562 117.227 200.101C117.308 199.359 117.264 198.779 117.221 198.198C117.244 198.103 117.267 198.007 117.426 197.818C117.608 197.14 117.654 196.554 117.701 195.969C117.705 195.765 117.709 195.56 117.836 195.206C117.852 194.505 117.745 193.954 117.669 193.337C117.715 193.177 117.706 193.084 117.672 192.993C117.759 192.944 117.845 192.895 118.044 192.71C118.215 191.99 118.275 191.406 118.335 190.823C118.348 190.7 118.361 190.576 118.492 190.293C118.62 189.597 118.63 189.06 118.64 188.523Z" fill="#0F2027"/>
<path d="M117.637 193.402C117.745 193.953 117.852 194.504 117.856 195.105C117.578 194.905 117.405 194.655 117.223 194.306C117.214 194.207 117.201 194.167 117.27 194.073C117.438 193.787 117.538 193.594 117.637 193.402Z" fill="#01499D"/>
<path d="M117.116 198.292C117.264 198.779 117.307 199.359 117.246 199.99C117.099 199.488 117.055 198.936 117.116 198.292Z" fill="#01499D"/>
<path d="M117.587 196.004C117.654 196.554 117.607 197.139 117.466 197.778C117.406 197.234 117.44 196.637 117.587 196.004Z" fill="#01499D"/>
<path d="M117.007 201.186C117.065 201.647 117.006 202.134 116.856 202.678C116.806 202.227 116.848 201.719 117.007 201.186Z" fill="#01499D"/>
<path d="M116.513 203.739C116.655 204.055 116.691 204.45 116.63 204.886C116.491 204.557 116.449 204.188 116.513 203.739Z" fill="#01499D"/>
<path d="M116.093 209.206C116.157 209.374 116.135 209.557 116.018 209.776C115.951 209.615 115.979 209.418 116.093 209.206Z" fill="#01499D"/>
<path d="M116.191 206.593C116.322 206.742 116.359 206.959 116.312 207.201C116.183 207.037 116.139 206.849 116.191 206.593Z" fill="#01499D"/>
<path d="M120.324 186.264C120.232 186.085 120.219 185.969 120.19 185.768C120.492 183.955 120.818 182.229 121.127 180.501C121.25 179.81 121.334 179.114 121.448 178.299C126.567 180.734 131.59 183.449 136.796 185.81C147.509 190.669 158.625 194.591 170.131 197.433C176.629 199.038 183.196 200.43 189.787 201.654C193.938 202.424 198.198 202.666 202.399 203.215C210.069 204.218 217.783 204.129 225.491 204.046C232.681 203.968 239.802 203.17 246.911 202.137C256.299 200.772 265.451 198.565 274.412 195.664C289.248 190.861 303.127 184.288 315.407 175.016C321.092 170.724 326.541 166.139 331.917 161.501C339.367 155.075 345.894 147.841 352.244 140.449C361.701 129.439 370.167 117.792 377.774 105.597C381.602 99.4609 385.089 93.1359 388.9 86.9316C389.414 90.1786 389.755 93.3903 390.101 96.6014C390.423 99.5776 390.75 102.553 391.078 105.529C391.561 109.919 392.06 114.307 392.527 118.698C392.859 121.816 393.131 124.94 393.495 128.055C393.526 128.321 394.05 128.536 394.344 128.775C394.364 131.292 394.293 133.813 394.437 136.324C394.525 137.86 395 139.373 395.196 140.909C395.386 142.41 395.438 143.926 395.558 145.435C396.087 152.093 396.579 158.753 397.166 165.405C397.447 168.582 397.955 171.741 398.264 174.917C398.368 175.989 398.177 177.086 398.235 178.205C398.283 178.008 398.332 177.812 398.417 177.468C398.557 177.743 398.645 177.916 398.788 178.238C398.572 178.802 398.301 179.219 398.03 179.636C382.521 196.382 362.478 206.542 340.872 214.367C325.672 219.871 309.968 223.752 293.901 226.175C283.291 227.775 272.605 228.958 261.93 230.138C257.502 230.627 253.014 230.682 248.549 230.823C243.93 230.969 239.304 231.1 234.684 231.027C225.697 230.884 216.743 230.294 207.825 229.149C193.373 227.294 179.325 224.042 165.859 218.72C151.268 212.954 138.071 205.186 127.175 194.257C124.717 191.791 122.649 188.979 120.324 186.264Z" fill="#0062D1"/>
<path d="M154.367 58.5689C154.856 58.3816 155.344 58.1943 155.931 57.9692C156.667 60.0387 157.321 62.1919 158.195 64.263C159.429 67.1857 160.85 70.0376 162.144 72.9385C163.336 75.6129 165.733 77.1109 168.325 78.2008C175.085 81.0423 181.938 83.6882 188.749 86.4217C190.706 87.207 192.654 88.013 194.594 88.8335C195.366 89.16 195.583 89.6148 195.444 90.5306C195.137 92.5541 195.154 94.6201 195.015 96.6674C194.608 102.66 194.227 108.654 193.763 114.642C193.421 119.058 193.024 123.472 192.543 127.876C192.025 132.607 191.41 137.329 190.783 142.049C190.087 147.287 189.485 152.543 188.561 157.747C187.17 165.586 185.892 173.466 182.477 180.848C180.699 184.693 177.946 185.354 173.466 184.953C164.866 184.184 156.929 181.277 149.273 177.72C143.905 175.227 138.651 172.484 134.515 168.24C132.981 166.665 131.964 164.923 132.122 162.705C132.532 156.954 132.837 151.194 133.359 145.451C133.855 140.001 134.501 134.56 135.214 129.131C135.915 123.8 136.773 118.487 137.58 113.169C138.607 106.39 139.576 99.6024 140.714 92.84C141.606 87.5343 142.57 82.2302 143.803 76.9884C144.294 74.9042 145.598 72.9896 146.654 71.0897C146.155 72.8482 145.483 74.501 144.951 76.1925C144.84 76.5452 145.241 77.041 145.407 77.4708C145.827 77.288 146.307 77.1715 146.648 76.8997C146.889 76.7073 146.956 76.31 147.074 75.9953C148.106 73.2481 149.043 70.4661 150.182 67.759C151.484 64.6612 152.964 61.6294 154.367 58.5689Z" fill="#4996FF"/>
<path d="M164.125 53.1994C170.318 47.6072 178.173 45.1225 186.145 42.9917C197.635 39.9207 209.137 36.8611 220.739 34.2044C229.02 32.3082 237.455 30.9792 245.859 29.6027C249.779 28.9607 253.781 28.6474 257.76 28.4687C263.234 28.2229 268.737 27.9718 274.2 28.2296C279.836 28.4955 285.469 29.1937 291.051 30.0203C297.981 31.0465 304.902 32.2041 311.743 33.6586C320.518 35.5247 329.231 37.6665 337.925 39.8518C340.845 40.5858 343.638 41.786 346.458 42.8449C347.025 43.0577 347.454 43.5955 347.831 44.1037C339.8 44.1247 331.881 43.8521 323.969 43.9837C318.091 44.0815 312.193 44.4681 306.36 45.1507C298.819 46.033 291.288 47.1163 283.836 48.5121C271.933 50.7419 260.696 54.9846 249.498 59.2762C240 62.9165 230.572 66.7553 220.594 69.1235C210.355 71.5538 200.042 73.5914 189.382 73.3571C185.165 73.2644 181.072 72.6006 177.261 70.9048C170.601 67.9418 165.977 63.3342 164.597 56.2837C164.397 55.263 164.28 54.2279 164.125 53.1994Z" fill="#0062D1"/>
<path d="M164.004 53.1811C164.28 54.2278 164.397 55.2628 164.597 56.2836C165.976 63.3341 170.601 67.9416 177.261 70.9047C181.072 72.6004 185.165 73.2642 189.382 73.3569C200.042 73.5913 210.354 71.5536 220.594 69.1233C230.572 66.7551 240 62.9164 249.498 59.276C260.696 54.9844 271.932 50.7417 283.836 48.5119C291.287 47.1162 298.819 46.0329 306.359 45.1505C312.193 44.468 318.091 44.0814 323.968 43.9836C331.88 43.852 339.8 44.1246 347.85 44.1999C352.85 44.8085 357.721 45.4096 362.578 46.1053C363.358 46.2171 364.816 46.0474 364.605 47.2893C364.379 48.627 363.077 47.962 362.203 47.8723C355.157 47.1495 348.114 46.4 341.069 45.6694C340.618 45.6226 340.156 45.6656 339.455 45.6073C334.901 45.5839 330.591 45.5983 326.282 45.6606C316.381 45.8036 306.543 46.6833 296.753 48.0359C294.167 48.3932 291.615 48.9719 289.047 49.449C288.915 49.4497 288.782 49.4505 288.45 49.451C288.005 49.5392 287.76 49.6274 287.515 49.7157C287.287 49.7302 287.059 49.7447 286.645 49.775C286.353 49.8088 286.275 49.8633 286.225 49.9543C285.918 49.9884 285.61 50.0225 285.119 50.0738C284.833 50.1051 284.752 50.1534 284.695 50.2358C278.212 51.9611 271.595 53.3351 265.278 55.49C254.455 59.1818 243.881 63.5159 233.09 67.2971C220.379 71.7513 207.234 74.5622 193.65 75.1933C186.336 75.5332 179.22 74.6016 172.919 70.7181C167.812 67.5701 164.179 63.3282 162.819 57.5996C162.567 56.5381 162.538 55.424 162.472 54.3307C162.418 53.432 162.881 52.9814 164.004 53.1811Z" fill="#1A303B"/>
<path d="M154.397 58.4746C152.964 61.6294 151.484 64.6612 150.182 67.759C149.043 70.4661 148.106 73.2481 147.074 75.9953C146.956 76.31 146.889 76.7073 146.648 76.8997C146.307 77.1715 145.827 77.288 145.407 77.4708C145.241 77.041 144.84 76.5452 144.951 76.1925C145.484 74.501 146.155 72.8482 146.758 71.0726C147.679 68.6467 148.67 66.3469 149.55 64.0103C153.336 53.9644 160.466 46.7048 170.337 41.6739C176.666 38.4476 183.38 36.1693 190.276 34.3176C191.001 34.123 191.875 33.7746 192.196 34.7659C192.528 35.7873 191.55 35.9286 190.846 36.1145C183.545 38.0426 176.448 40.4502 169.883 44.0851C163.471 47.6354 158.024 52.1249 154.397 58.4746Z" fill="#F5F9FE"/>
<path d="M289.13 49.5282C291.615 48.9722 294.167 48.3934 296.753 48.0361C306.543 46.6836 316.381 45.8038 326.282 45.6608C330.591 45.5986 334.901 45.5842 339.312 45.6151C339.089 45.7762 338.768 45.9361 338.438 45.9544C332.934 46.2601 327.425 46.5081 321.923 46.851C316.579 47.1841 311.235 47.5395 305.904 48.0157C300.58 48.4912 295.273 49.1308 289.958 49.688C289.715 49.7134 289.461 49.6364 289.13 49.5282Z" fill="#0062D1"/>
<path d="M195.19 32.8913C197.076 32.2904 198.878 31.7446 200.709 31.3043C201.021 31.2293 201.656 31.5254 201.778 31.7957C201.903 32.0725 201.675 32.7922 201.442 32.8639C199.647 33.4186 197.823 33.9047 195.976 34.2763C195.795 34.3127 195.407 33.4353 195.19 32.8913Z" fill="#F5F9FE"/>
<path d="M133.746 102.249C133.692 102.031 133.718 101.752 133.837 101.451C133.895 101.681 133.86 101.934 133.746 102.249Z" fill="#0062D1"/>
<path d="M134.047 100.812C133.994 100.593 134.02 100.314 134.141 100.012C134.199 100.244 134.163 100.497 134.047 100.812Z" fill="#0062D1"/>
<path d="M287.572 49.7873C287.76 49.6276 288.005 49.5393 288.352 49.4719C288.179 49.6148 287.904 49.7368 287.572 49.7873Z" fill="#0062D1"/>
<path d="M133.126 105.42C133.079 105.283 133.106 105.093 133.217 104.884C133.266 105.031 133.234 105.2 133.126 105.42Z" fill="#0062D1"/>
<path d="M286.299 49.9596C286.275 49.8634 286.353 49.8089 286.534 49.8015C286.553 49.8957 286.475 49.9466 286.299 49.9596Z" fill="#0062D1"/>
<path d="M284.766 50.2451C284.752 50.1537 284.832 50.1055 285.007 50.1057C285.019 50.1985 284.939 50.2432 284.766 50.2451Z" fill="#0062D1"/>
<path d="M134.022 206.922C134.387 207.056 134.801 207.124 135.11 207.332C139.697 210.407 144.25 213.522 149.468 215.647C149.914 215.828 150.341 216.869 150.203 217.37C149.044 221.559 147.804 225.729 146.475 229.873C145.878 231.734 145.024 233.522 144.172 235.624C141.909 234.522 139.751 233.607 137.739 232.465C131.558 228.956 126.817 224.057 122.542 218.637C120.007 215.422 118.856 212.151 119.548 208.142C120.331 203.606 120.734 199.011 121.617 194.343C123.388 198.176 126.891 200.49 129.628 203.577C126.911 205.634 124.217 207.51 121.453 209.436C123.305 213.661 125.14 217.846 127.035 222.17C130.57 219.994 133.996 217.885 137.422 215.777C136.255 212.737 135.138 209.83 134.022 206.922Z" fill="#4C5B60"/>
<path d="M133.952 206.839C135.138 209.83 136.255 212.738 137.422 215.777C133.997 217.885 130.57 219.994 127.035 222.171C125.14 217.846 123.305 213.661 121.453 209.436C124.217 207.51 126.911 205.634 129.652 203.678C130.409 203.172 131.118 202.747 131.957 202.243C132.611 203.777 133.246 205.266 133.952 206.839Z" fill="#FCFDFD"/>
<path d="M24.0688 172.559C24.1279 172.632 24.1504 172.792 24.0995 172.983C24.0281 172.891 24.0303 172.769 24.0688 172.559Z" fill="#007DFE"/>
<path d="M118.534 188.554C118.629 189.06 118.62 189.597 118.515 190.203C118.423 189.71 118.426 189.148 118.534 188.554Z" fill="#01499D"/>
<path d="M118.223 190.86C118.275 191.406 118.215 191.99 118.066 192.639C118.021 192.102 118.066 191.499 118.223 190.86Z" fill="#01499D"/>
<path d="M117.669 193.337C117.538 193.594 117.438 193.786 117.256 194.056C117.284 193.71 117.393 193.285 117.588 192.927C117.706 193.084 117.715 193.177 117.669 193.337Z" fill="#007DFE"/>
<path d="M249.058 13.0142C249.104 13.0818 249.148 13.2431 249.123 13.4435C249.055 13.3577 249.056 13.2328 249.058 13.0142Z" fill="#E1E1E1"/>
<path d="M249.054 0.344971C249.088 0.35076 249.122 0.426146 249.108 0.527655C249.06 0.55376 249.056 0.414567 249.054 0.344971Z" fill="#E1E1E1"/>
</svg>
