<svg width="711" height="501" viewBox="0 0 711 501" fill="none" xmlns="http://www.w3.org/2000/svg">
<path d="M183.44 280.374C182.49 250.915 181.09 221.956 180.755 192.985C180.492 170.206 180.873 147.356 185.257 124.848C190.563 97.611 207.043 78.1862 229.294 63.0543C253.769 46.409 281.343 37.1276 309.788 30.1496C337.306 23.3987 365.256 19.2504 393.493 17.012C397.924 16.6607 401.651 15.9468 403.84 11.0094C405.807 6.57287 410.574 4.64254 415.006 3.12449C427.766 -1.24538 440.504 -1.09939 453.079 3.99118C455.718 5.05955 458.596 6.20375 460.14 8.54953C463.04 12.9571 467.017 13.2941 471.746 13.3925C510.28 14.1937 548.552 17.2845 585.757 28.2493C616.664 37.3581 645.337 50.7069 668.48 73.8453C690.38 95.7414 701.996 122.407 706.009 153.076C711.805 197.368 711.138 241.811 710.589 286.26C710.369 304.053 708.722 321.827 707.801 339.614C707.67 342.139 706.444 343.992 704.987 345.847C691.34 363.22 672.884 373.448 652.798 381.464C639.656 386.709 626.759 392.568 613.761 398.175C612.544 398.7 611.077 399.247 610.85 400.697C610.075 405.662 606.033 407.652 602.5 410.044C541.148 451.58 474.358 480.097 401.351 493.449C370.305 499.126 338.926 501.469 307.363 500.416C272.537 499.255 238.032 494.958 203.796 488.612C160.085 480.509 116.747 470.755 74.254 457.578C55.1619 451.658 36.1547 445.385 18.8155 435.107C15.6746 433.245 12.7668 430.981 9.80388 428.83C-3.41878 419.232 -2.13269 400.207 6.93513 390.239C16.2877 379.958 28.2648 373.835 40.6594 368.4C85.0716 348.925 130.534 332.096 175.964 315.209C181.363 313.202 183.481 310.588 183.526 304.825C183.588 296.837 183.702 288.855 183.44 280.374ZM273.787 379.659C277.95 381.137 281.16 379.373 284.277 376.798C287.676 373.989 290.118 374.815 291.117 379.106C291.44 380.492 291.926 381.228 293.285 381.296C294.538 381.358 295.535 381.075 295.862 379.567C296.701 375.689 299.393 376.928 301.083 378.3C303.202 380.021 304.984 380.123 307.467 379.449C309.348 378.939 312.398 378.413 312.005 381.979C311.458 386.951 315.043 387.681 317.959 387.019C326.185 385.151 334.944 390.222 343.313 384.346C340.099 389.616 343.805 390.496 346.837 390.825C352.776 391.469 358.786 391.794 364.756 391.679C367.704 391.622 371.587 392.468 372.784 387.78C373.047 386.75 375.613 386.723 376.322 387.791C379.85 393.107 385.73 393.776 390.903 394.166C410.132 395.618 429.41 396.685 448.688 397.169C477.732 397.898 506.78 397.515 535.775 395.282C538.076 395.105 540.663 394.81 540.042 391.82C538.977 386.684 540.377 381.681 540.172 376.589C539.074 349.305 538.232 322.009 537.39 294.715C536.712 272.742 536.021 250.767 535.586 228.788C534.981 198.319 534.159 167.855 532.16 137.448C530.614 113.929 523.29 92.4292 507.501 74.3925C495.869 61.1043 481.782 50.8107 467.084 41.1986C456.76 34.4471 446.608 28.5758 433.326 31.2465C427.417 32.4347 421.059 30.8407 414.934 30.4755C411.567 30.2746 408.329 28.0634 404.507 28.9999C371.509 37.0862 340.374 49.2949 313.52 70.6823C294.272 86.0116 281.037 105.104 276.585 129.911C273.551 146.814 271.397 163.823 270 180.874C268.003 205.249 266.561 229.702 265.926 254.149C264.973 290.784 264.249 327.435 264.801 364.092C264.894 370.277 265.297 370.655 271.613 370.571C274.311 374.208 269.875 374.602 268.835 376.207C269.29 378.962 271.273 379.053 273.787 379.659ZM551.986 32.5841C548.46 31.646 544.934 30.7078 541.405 29.7689C540.832 32.2115 539.935 32.8269 538.861 31.4245C536.61 28.4838 534.12 28.2854 530.983 29.4756C530.336 29.7211 529.166 29.462 528.63 28.9894C524.203 25.0796 518.208 25.9882 513.286 25.2096C499.226 22.9858 484.878 22.2562 470.538 22.6486C465.107 22.7972 461.109 24.9467 457.473 29.1807C459.742 30.7788 461.683 32.3357 463.798 33.6022C473.962 39.6888 483.656 46.4379 492.906 53.8368C518.492 74.3015 533.619 100.55 536.655 133.372C538.603 154.44 538.716 175.605 539.46 196.731C540.696 231.846 541.625 266.972 542.594 302.096C543.387 330.896 544.152 359.697 544.665 388.503C544.748 393.145 546.109 394.663 550.729 394.317C569.002 392.949 587.058 389.418 605.252 388.061C618.114 387.101 628.4 380.916 639.706 376.664C643.287 375.317 646.751 373.655 650.349 372.358C663.637 367.572 675.804 360.866 686.735 351.87C694.776 345.251 701.131 337.936 699.385 326.489C699.262 325.683 699.444 324.828 699.497 323.997C701.474 292.743 702.884 261.481 701.628 230.146C701.38 223.971 699.893 217.891 700.052 211.772C700.566 192.094 699.998 172.566 696.323 153.119C695.538 148.967 692.087 146.254 692.18 142.203C692.261 138.687 690.937 135.671 689.539 132.697C676.982 105.986 658.335 84.5074 633.982 67.8442C609.172 50.8673 581.586 40.4226 551.986 32.5841ZM286.635 479.537C294.609 480.029 302.577 480.654 310.558 480.989C344.235 482.402 377.332 478.161 410.061 470.529C467.669 457.097 522.071 435.252 574.305 407.766C577.121 406.284 579.99 404.616 582.077 401.676C578.49 399.631 575.291 401.245 572.138 401.733C562.868 403.168 553.112 401.498 544.316 406.074C543.696 406.397 542.58 406.294 541.931 405.947C537.624 403.645 533.136 405.103 528.705 405.082C523.086 405.055 518.02 409.881 511.25 405.615C513.335 411.405 510.288 411.76 507.232 411.62C504.75 411.506 502.743 411.807 500.99 413.82C500.097 414.844 498.573 415.592 497.044 414.394C497.592 411.237 501.442 411.159 503.194 407.342C490.015 408.296 478.568 413.409 466.059 415.136C467.874 409.279 464.623 408.356 460.297 408.539C458.972 408.595 457.64 408.948 456.33 408.865C450.985 408.53 446.571 412.157 441.465 412.405C435.318 412.703 429.129 412.628 422.98 412.309C392.567 410.729 362.192 408.646 331.971 404.726C299.423 400.505 267.101 395.101 235.6 385.658C221.37 381.392 207.442 376.29 195.357 367.269C189.44 362.853 185.634 357.324 183.715 349.871C182.038 343.358 180.538 336.928 179.731 330.249C179.031 324.451 178.455 324.271 173.053 326.271C158.375 331.706 143.678 337.097 129.086 342.758C97.5748 354.982 65.8201 366.625 35.2849 381.224C28.9563 384.25 22.9879 387.931 17.8219 392.735C13.0399 397.181 12.5328 400.97 16.0704 406.425C17.4129 408.495 19.1215 410.399 20.9417 412.076C28.9093 419.417 38.5066 424.053 48.3646 428.201C68.673 436.746 89.77 442.868 111.035 448.45C168.417 463.515 226.347 475.502 286.635 479.537ZM192.376 223.898C192.529 229.727 191.834 235.729 192.99 241.351C196.663 259.22 198.687 277.192 198.522 295.423C198.503 297.499 198.856 299.367 201.202 300.261C207.457 302.645 209.979 307.754 210.296 313.95C210.636 320.602 212.336 326.757 215.581 332.512C217.501 335.917 218.366 339.489 218.666 343.427C219.455 353.815 220.863 358.464 233.812 361.799C238.473 362.999 243.454 363.849 247.548 366.168C255.049 370.418 259.467 368.656 259.998 360.189C260.155 357.698 260.112 355.192 260.122 352.693C260.268 315.709 260.518 278.735 262.077 241.768C263.46 208.992 265.055 176.244 269.426 143.722C271.464 128.561 274.155 113.483 281.905 99.7916C292.739 80.6533 308.743 66.9026 326.917 55.2786C340.162 46.807 354.358 40.2404 368.932 34.4397C370.537 33.8007 373.077 33.6896 372.349 31.1092C371.691 28.7768 369.385 29.394 367.631 29.6583C365.33 30.005 362.997 30.3901 360.799 31.1224C354.509 33.2182 347.918 32.4547 341.639 33.2534C318.328 36.2181 295.595 42.2697 273.664 50.9345C263.769 54.844 254.035 59.0947 245.226 65.2364C240.177 68.7563 238.404 74.5071 241.163 79.9228C245.071 87.5951 242.279 96.7968 234.724 101.063C230.472 103.464 226.479 103.463 222.968 99.6449C221.724 98.2916 220.538 97.2002 218.406 97.0438C212.171 96.5863 208.774 99.1303 207.716 106.143C207.123 110.074 205.481 112.975 202.943 116.136C198.097 122.171 194.194 128.792 193.182 137.063C192.373 143.669 193.574 149.998 193.65 156.447C193.909 178.616 192.405 200.742 192.376 223.898ZM424.519 21.9357C429.164 21.9666 433.826 22.2506 438.451 21.9542C442.723 21.6804 447.093 21.6875 451.196 20.1209C452.598 19.5852 454.126 18.9712 454.414 17.3135C454.724 15.5297 453.181 14.7171 451.985 13.8837C443.413 7.91222 421.965 8.1017 413.824 14.2085C410.918 16.3881 411.477 18.2137 414.436 19.8178C417.321 21.3813 420.595 21.0041 424.519 21.9357ZM663.59 81.7985C647.061 65.648 618.462 47.7179 606.642 46.3832C640.04 62.6593 667.626 84.8398 686.884 116.557C680.988 103.966 673.947 92.1942 663.59 81.7985Z" fill="black"/>
</svg>
