<svg width="388" height="230" viewBox="0 0 388 230" fill="none" xmlns="http://www.w3.org/2000/svg">
<path d="M262.113 229.238C243.147 230.312 225.714 225.101 208.316 219.956C180.534 211.739 152.886 203.103 126.215 191.643C124.714 190.998 122.996 190.305 121.439 190.424C103.808 191.766 86.7231 186.897 69.2845 185.918C54.7665 185.103 40.3619 185.069 25.9459 186.924C19.9791 187.691 13.9723 187.492 7.9792 187.31C4.82954 187.214 2.51266 186 2.16653 182.424C-0.584939 154.001 -1.87257 125.705 5.53343 97.613C13.3552 67.9442 30.5546 45.5555 55.9599 28.7842C85.9397 8.99329 118.539 -1.88824 154.553 0.992013C186.765 3.56819 215.783 15.2307 239.606 37.6392C253.191 50.4175 258.381 67.641 261.606 85.38C263.745 97.1457 265.262 109.036 266.686 120.915C267.263 125.726 268.825 128.534 273.912 130.035C304.716 139.126 335.421 148.558 366.146 157.917C371.404 159.519 376.657 161.203 381.083 164.669C386.574 168.968 388.681 175.637 386.25 180.969C383.601 186.783 377.427 189.925 370.459 188.447C363.794 187.033 357.102 185.497 350.678 183.274C345.029 181.32 340.963 182.756 336.606 186.437C326.815 194.707 316.809 202.743 306.619 210.517C293.575 220.467 279.176 227.496 262.113 229.238ZM148.11 61.8762C150.646 60.6278 153.211 59.4321 155.715 58.1224C172.322 49.4382 189.527 42.3787 208.094 39.1478C213.741 38.1652 219.462 37.6097 225.149 36.8586C224.605 36.4287 224.109 36.3529 223.617 36.3732C204.177 37.1765 185.959 42.8292 168.41 50.757C161.186 54.0208 153.647 56.8633 146.729 62.1873C138.695 65.6896 131.764 70.9282 125.052 76.5188C132.505 71.6955 139.958 66.8723 148.11 61.8762ZM130.836 113.704C129.228 112.32 128.764 110.413 128.193 108.464C126.565 102.905 126.144 97.0969 123.964 91.6182C118.214 77.1664 108.665 66.5159 94.4469 60.001C81.722 54.1702 68.3176 52.9172 54.944 55.6323C44.9578 57.6599 36.3203 63.9184 37.4634 76.2998C38.1205 83.4177 36.7167 90.2264 33.5465 96.6535C27.2454 109.428 28.8918 122.559 32.0317 135.667C32.8849 139.228 35.0519 142.264 37.7777 144.883C42.4574 149.38 47.1917 153.852 51.5048 158.689C56.1622 163.913 61.9257 167.236 68.5499 168.435C85.2312 171.456 101.948 174.476 119.033 174.035C125.821 173.86 129.324 171.241 131.67 164.869C134.535 157.086 133.736 149.238 133.047 141.221C132.271 132.182 129.17 123.246 131.823 114.67C132.863 117.135 133.356 119.717 133.802 122.357C136.667 139.336 136.989 156.448 136.818 173.601C136.802 175.204 135.87 177.317 138.223 178.376C140.75 177.252 140.092 174.981 140.044 173.155C139.837 165.34 139.491 157.528 139.134 149.717C138.208 129.488 134.828 109.746 127.627 90.7252C116.579 61.5457 85.4798 43.844 56.1065 50.1151C54.2869 50.5036 52.4328 50.7527 50.6492 52.656C80.3903 46.8688 103.925 55.3576 120.439 80.4406C127.074 90.5192 131.209 101.745 130.836 113.704ZM247.383 60.6006C244.349 54.6549 240.861 49.0436 236.564 43.8725C233.435 40.107 229.789 38.8192 225.152 39.474C219.223 40.3113 213.246 40.8784 207.361 41.9495C178.054 47.2827 152.728 61.5302 128.185 77.515C125.873 79.0208 125.735 80.5802 126.892 82.9514C130.254 89.8424 132.938 96.9952 134.966 104.415C140.353 124.132 142.35 144.262 142.707 164.621C142.819 170.99 143.422 171.415 149.433 168.998C162.759 163.638 175.091 156.343 187.5 149.19C209.504 136.506 231.729 124.365 258.09 123.717C260.568 123.656 261.099 122.187 260.809 120C258.156 100.044 256.008 79.9773 247.383 60.6006ZM250.795 221.746C255.082 221.203 259.426 220.933 263.648 220.068C280.608 216.594 294.538 207.232 307.974 196.937C323.86 184.766 337.824 169.902 357.58 162.058C355.668 161.373 354.461 160.888 353.222 160.506C328.414 152.858 303.264 146.337 278.811 137.512C271.594 134.907 264.081 133.833 256.228 134.929C239.392 137.278 224.265 143.959 209.791 152.406C194.977 161.051 180.2 169.761 164.464 176.668C158.277 179.384 151.969 181.825 145.704 184.396C146.647 187.271 148.264 189.073 150.871 189.779C158.142 191.749 162.725 199.795 171.338 198.82C171.892 198.757 172.771 199.69 173.155 200.358C174.252 202.264 176.021 203.035 177.959 203.662C185.88 206.226 193.73 209.028 201.721 211.347C217.522 215.932 233.116 221.571 250.795 221.746ZM155.781 53.8628C176.849 43.2924 198.83 35.6218 222.574 33.4784C222.273 32.5569 222.263 32.1567 222.058 31.967C221.454 31.4075 220.816 30.8598 220.115 30.4329C198.125 17.0465 174.423 8.43995 148.613 7.62251C121.419 6.76118 95.7864 13.5662 72.3491 27.5169C66.1253 31.2214 60.7657 36.3919 55.0788 40.9755C53.5259 42.2273 53.0737 44.0286 53.8324 45.9528C54.4 47.3923 55.5942 47.1032 56.794 46.9395C81.9025 43.5121 102.683 51.3753 118.869 70.9507C121.012 73.5424 122.778 73.8186 125.56 71.862C134.967 65.2464 144.995 59.635 155.781 53.8628ZM240.125 132.104C246.89 130.608 253.654 129.113 261.173 127.45C256.541 126.045 252.627 126.371 248.668 126.876C233.747 128.783 220.117 134.445 206.898 141.244C186.349 151.815 167.34 165.322 145.5 173.441C144.249 173.907 143.044 174.648 143.942 176.652C147.447 176.75 150.637 175.282 153.862 174.128C170.094 168.321 184.959 159.787 199.738 151.074C212.367 143.628 225.128 136.434 240.125 132.104Z" fill="black"/>
</svg>
