<svg width="301" height="479" viewBox="0 0 301 479" fill="none" xmlns="http://www.w3.org/2000/svg">
<path d="M182.431 320.071C176.693 314.976 174.23 307.751 168.712 302.868C164.82 299.424 163.273 294.146 160.993 289.735C158.313 284.553 155.234 279.312 153.467 273.054C151.284 274.828 149.224 276.603 148.957 279.252C148.515 283.637 146.259 286.642 142.921 289.143C142.278 289.625 141.608 290.26 141.302 290.975C137.882 298.969 130.965 303.802 125.247 309.849C119.869 315.535 112.807 317.632 106.638 319.341C99.4957 321.321 91.8432 325.839 83.3219 321.963C82.1329 330.257 82.8808 337.931 84.1816 345.623C86.9959 362.266 93.0618 378.02 97.3266 394.265C101.71 410.961 104.829 427.77 100.471 444.987C99.8826 447.313 101.087 448.788 101.812 450.579C104.635 457.556 100.164 466.238 93.1761 467.354C87.289 468.294 82.159 465.43 80.3873 460.214C78.5634 454.844 80.8938 448.289 86.5063 445.913C90.8548 444.072 91.6958 441.081 92.2643 437.099C95.0934 417.283 89.0731 398.853 83.5769 380.347C78.6434 363.735 73.616 347.158 73.42 329.606C73.3202 320.669 71.5926 319.945 62.8528 318.163C55.7262 316.71 48.7755 314.236 42.665 308.861C37.4584 304.281 34.969 298.222 30.4989 293.434C27.4396 290.157 27.3722 285.325 26.4154 281.338C24.7162 274.259 22.91 266.779 25.1528 259.338C25.7001 257.522 26.0451 255.883 25.4397 254.014C25.0921 252.941 24.8529 251.555 25.2331 250.567C27.9881 243.411 25.9807 235.04 31.1236 228.45C33.1852 225.808 33.0791 221.999 33.4781 218.961C34.4443 211.602 38.9092 205.082 38.2045 197.421C38.029 195.514 38.0726 193.901 35.7552 193.135C27.4025 190.376 19.6534 186.375 12.0625 181.913C6.69621 178.758 -1.85243 164.42 0.357226 156.406C2.33965 149.216 3.21642 141.673 6.54967 134.919C9.73992 128.455 13.7612 122.187 20.6951 119.48C28.6159 116.389 35.8932 110.983 45.0859 111.731C47.9859 111.966 48.3849 109.385 49.2153 107.462C54.7286 94.6915 61.4693 82.6742 70.7824 72.2355C88.2386 52.6695 110.514 43.7853 136.308 42.8019C152.675 42.178 168.916 43.5919 185.084 46.0416C185.867 46.1602 186.666 46.1662 187.526 46.2297C187.046 35.3485 189.721 25.2072 195.908 16.9745C200.055 11.4571 205.871 6.89835 212.609 3.49019C219.756 -0.125145 227.07 1.39341 234.213 0.0964133C238.029 -0.596504 240.966 2.64224 244.49 3.53735C251.663 5.35949 258.314 8.74014 263.275 13.8918C266.444 17.1836 270.252 20.9294 270.962 26.1604C271.072 26.9643 271.153 27.8917 271.597 28.5124C278.378 37.9993 276.516 48.0344 273.403 58.0751C272.769 60.1201 271.933 62.026 271.65 64.2305C270.824 70.6765 264.55 71.551 260.418 74.5778C259.128 75.5229 257.399 75.8691 255.383 76.6873C257.867 79.5298 260.212 82.0355 262.36 84.6994C276.234 101.904 283.569 121.826 286.797 143.478C290.457 168.031 287.745 192.266 283.366 216.431C281.881 224.625 282.277 232.627 285.362 240.478C287.917 246.98 290.642 253.437 292.229 260.283C292.416 261.09 292.501 262.17 293.047 262.608C302.688 270.332 298.361 281.717 300.383 291.369C301.376 296.107 296.579 299.64 294.493 303.725C290.856 310.846 284.643 315.919 278.816 321.309C269.578 329.854 257.993 333.018 246.456 336.32C242.042 337.583 237.246 336.779 232.731 338.147C230.836 338.721 229.877 339.414 229.768 341.43C228.315 368.332 214.092 388.145 194.619 405.178C182.723 415.585 170.402 425.677 162.528 439.83C161.318 442.007 160.272 444.285 159.292 446.577C157.71 450.278 156.424 453.258 161.239 456.537C166.846 460.356 166.442 469.841 161.604 474.868C156.783 479.876 149.276 480.13 144.086 475.46C138.937 470.827 138.431 462.67 143.606 457.591C146.412 454.837 147.727 451.8 148.743 448.216C153.035 433.068 162.878 421.633 173.961 411.049C184.192 401.278 195.504 392.624 204.399 381.472C212.689 371.078 217.805 359.294 219.977 346.22C221.086 339.54 218.997 337.19 209.813 334.889C200.2 332.48 191.464 328.392 183.935 321.878C183.437 321.448 183.06 320.877 182.431 320.071ZM283.617 251.457C282.027 247.612 280.558 243.711 278.82 239.933C275.773 233.313 275.516 226.389 276.472 219.373C277.437 212.289 278.796 205.258 279.797 198.178C283.302 173.387 283.524 148.719 276.16 124.482C268.871 100.492 255.628 80.9321 233.425 68.2355C219.211 60.1079 203.746 55.7511 187.739 52.9027C167.967 49.3843 148.049 47.7001 128.073 49.7505C92.8794 53.3629 71.1877 74.6499 57.1062 105.446C55.4006 109.176 55.7833 110.908 60.3119 111.981C65.6908 113.256 71.2626 112.136 76.5505 114.266C85.6216 117.918 95.2958 119.938 104.704 122.226C115.773 124.918 125.086 130.371 133.493 137C144.401 145.601 149.477 158.629 153.154 171.598C155.891 181.249 158.913 190.902 160.576 200.888C161.158 204.379 162.411 208.539 164.842 210.788C171.459 216.909 175.401 224.257 177.84 232.693C178.438 234.762 179.011 237 180.647 238.489C190.912 247.833 197.073 260.197 204.935 271.306C206.399 273.374 207.919 275.392 210.289 276.412C218.205 279.82 225.219 284.309 230.39 291.464C232.914 294.957 236.667 295.483 240.747 294.245C244.728 293.037 248.719 291.874 252.98 292.041C255.444 292.137 257.626 292.498 258.894 294.923C260.773 298.515 263.779 298.476 267.055 297.384C273.923 295.097 278.495 289.924 281.968 284.091C288.003 273.955 287.414 263.088 283.617 251.457ZM188.322 295.4C187.857 293.81 187.903 291.559 186.842 290.738C180.896 286.139 179.606 278.909 176.131 272.932C175.106 271.17 174.087 269.635 174.151 267.476C174.249 264.152 173.337 261.211 170.163 259.433C168.873 258.711 168.155 257.626 168.716 256.115C169.944 252.806 168.034 250.35 166.529 247.783C165.782 246.509 164.336 245.247 165.06 243.738C167.255 239.158 164.497 236.132 161.968 233.054C160.708 231.522 160.062 230.033 160.593 228.037C161.599 224.26 160.041 220.909 158.819 217.451C156.913 212.054 158.776 205.613 154.287 200.878C154.094 200.674 154.379 199.911 154.572 199.465C155.732 196.781 154.355 194.64 153.14 192.448C152.504 191.301 151.363 190.106 151.402 188.965C151.671 180.966 147.667 174.046 145.982 166.553C144.955 161.988 143.732 157.472 139.22 154.826C138.688 154.513 138.262 153.287 138.424 152.646C139.368 148.924 136.861 147.07 134.488 145.274C130.778 142.466 129.12 136.607 122.927 137.39C122.676 137.422 122.219 136.716 122.039 136.279C120.668 132.966 117.928 132.197 114.716 132.232C113.529 132.245 112.155 132.204 111.622 131.026C109.861 127.138 106.614 127.113 103.175 127.586C101.799 127.775 100.512 127.969 99.5274 126.73C97.23 123.837 93.9861 124.105 90.8252 124.114C89.3519 124.118 87.5643 124.84 86.5142 123.618C83.7162 120.363 80.2662 121.084 76.8284 121.675C75.295 121.939 73.6246 122.489 72.9377 120.669C71.2529 116.206 67.751 117.266 64.5505 117.807C61.2446 118.366 57.7767 121.558 55.0455 116.744C54.8739 116.442 53.5591 116.358 53.1812 116.668C48.3479 120.624 40.586 113.789 36.7295 121.153C29.3208 120.759 24.2357 124.804 18.5434 129.025C13.5967 132.693 14.1081 138.625 10.2123 142.237C10.0653 142.374 10.1203 142.978 10.2947 143.173C13.2493 146.487 10.4056 148.342 8.69249 150.771C7.02239 153.139 4.26592 155.875 8.71361 158.599C10.4526 159.664 9.50023 161.554 8.98955 163.161C8.25701 165.467 6.77434 167.963 10.7611 169.05C12.2316 169.451 12.0331 171.186 12.0207 172.538C12.0077 173.973 12.4758 175.632 14.0599 175.382C17.125 174.898 18.1227 176.947 19.4711 178.851C20.5273 180.343 21.7821 182.236 23.8124 181.607C26.8815 180.656 28.3341 182.557 30.2806 184.146C32.7365 186.152 35.1309 188.962 38.8623 185.728C40.4454 184.356 41.8177 185.982 42.9683 187.315C45.5901 190.351 48.577 192.007 52.5374 189.489C54.6701 188.133 55.8145 189.987 57.2446 191.061C59.2603 192.574 60.9333 195.524 64.0265 193.875C66.3072 192.659 67.7349 193.506 69.3873 194.821C75.7905 199.918 84.1662 197.255 91.3165 200.112C93.1806 200.857 96.6087 199.843 99.3323 201.394C101.133 202.419 103.379 202.972 105.585 201.943C107.03 201.268 108.497 201.197 109.814 202.283C112.441 204.451 115.215 205.456 118.545 203.794C119.651 203.242 120.796 203.713 121.843 204.368C127.058 207.632 133.955 206.439 138.808 211.528C140.686 213.498 141.82 214.339 142.253 217.374C143.344 225.015 147.111 232.03 148.978 239.596C149.448 241.501 150.535 243.466 150.935 245.745C152.224 253.078 152.307 260.467 158.176 266.873C160.853 269.795 162.064 275.606 163.991 280.093C164.75 281.86 163.973 285.092 165.068 285.773C170.473 289.136 168.4 298.359 176.24 299.61C177.458 299.805 177.688 301.317 177.79 302.513C178.369 309.346 186.22 311.352 187.818 317.546C187.912 317.907 189.075 317.884 189.552 318.272C193.972 321.868 199.338 323.82 204.143 326.739C205.119 327.331 206.08 328.716 206.927 328.625C211.736 328.102 215.992 328.806 219.383 332.625C219.681 332.96 220.899 332.978 221.285 332.657C224.285 330.16 227.382 331.223 230.598 332.039C232.231 332.454 233.886 331.9 235.191 330.626C236.414 329.432 237.824 329.565 239.376 329.997C245.287 331.644 250.194 326.529 256.033 327.411C256.324 327.455 256.866 326.823 257.053 326.401C258.233 323.74 260.151 323.393 262.801 324.064C265.561 324.764 267.784 323.833 268.477 320.757C269 318.437 270.409 317.527 272.718 317.349C274.825 317.187 276.564 316.161 277.097 313.886C277.387 312.649 277.963 311.451 279.193 311.365C285.286 310.939 283.999 303.352 288.74 301.69C287.335 297.172 291.595 296.291 293.711 294.111C296.917 290.808 290.885 287.698 293.675 284.475C293.968 284.137 294.033 283.539 294.068 283.051C294.148 281.911 294.373 280.662 292.778 280.205C290.315 280.901 289.829 283.156 289.055 285.126C288.511 286.512 288.467 288.487 287.02 288.98C281.071 291.007 279.993 298.759 273.56 300.195C272.523 300.426 271.617 301.705 271.859 302.993C272.618 307.042 270.069 307.186 267.145 307.456C264.415 307.709 261.425 307.825 261.372 312.04C261.347 314.072 259.23 314.293 257.463 314.083C253.897 313.661 250.518 313.418 248.502 317.439C247.815 318.81 246.179 318.1 244.851 317.995C239.058 317.537 233.169 320.994 227.391 317.552C227 317.32 225.939 318.154 225.219 318.546C224.444 318.968 223.522 319.292 222.871 318.712C219.249 315.483 214.154 315.505 210.363 313.379C202.299 308.855 194.342 303.739 188.322 295.4ZM108.959 221.286C93.1817 216.315 78.1434 209.688 63.7383 201.538C58.9024 198.802 54.1469 195.808 48.0491 195.901C45.0147 195.948 43.1317 196.424 43.8421 199.427C45.3973 206.002 38.0561 211.217 41.2756 217.979C41.4912 218.432 40.2051 219.535 39.7234 220.395C36.8441 225.538 37.7764 232.226 33.1442 236.669C33.0534 236.757 33.024 237.05 33.0976 237.146C36.1693 241.159 33.0742 244.14 31.5112 247.459C30.9034 248.749 30.3442 250.602 30.8172 251.773C33.4085 258.185 26.5656 265.097 31.973 271.254C28.3918 277.112 33.1181 282.089 34.1291 287.316C35.058 292.119 40.4424 295.2 41.9432 300.285C42.0893 300.78 43.371 300.993 44.157 301.235C45.297 301.585 46.5265 301.933 46.9306 303.14C49.4314 310.61 57.177 310.286 62.508 312.41C70.4874 315.588 79.5104 316.96 88.1673 317.344C94.1248 317.607 100.896 315.85 106.029 313.178C110.551 310.824 118.195 312.428 119.7 304.913C119.741 304.707 120.612 304.66 121.099 304.552C127.83 303.071 128.88 295.131 134.677 292.528C135.074 292.349 135.254 290.882 135.007 290.208C133.724 286.718 135.37 285.502 138.514 284.618C141.596 283.751 144.15 282.013 142.045 278.075C141.294 276.671 141.576 275.362 142.818 274.548C150.182 269.727 148.592 262.75 147.078 256.04C145.447 248.814 142.999 241.771 141.423 234.536C140.522 230.404 138.781 228.013 134.465 227.394C126.05 226.186 117.873 223.9 108.959 221.286ZM217.751 7.78532C215.312 12.8008 207.188 10.6741 205.886 17.1885C205.848 17.3764 204.966 17.4968 204.484 17.4783C200.868 17.3394 199.892 19.6851 199.829 22.6215C199.766 25.5156 197.48 27.8533 197.058 29.7906C196.191 33.772 194.05 37.0465 193.039 40.7975C192.861 41.4566 193.296 42.5492 193.816 43.0827C196.408 45.7418 198.428 48.8008 202.641 49.7911C218.661 53.5575 233.763 59.5688 246.917 69.7655C248.746 71.1832 250.557 71.2658 252.865 71.2549C258.294 71.2291 260.38 65.4568 265.778 65.1925C264.188 62.0205 264.871 59.7435 267.061 57.7114C267.706 57.113 268.345 55.7336 268.084 55.0665C266.861 51.9484 268.014 49.6814 270.051 47.4565C270.525 46.9391 270.841 45.6373 270.527 45.1413C268.559 42.0332 268.083 38.8451 269.057 35.2847C269.262 34.535 268.618 33.2033 267.948 32.6226C264.396 29.5471 264.455 24.5504 261.081 21.0422C257.291 17.102 253.114 14.1734 248.67 11.245C245.243 8.98692 240.596 10.5974 237.746 7.43935C235.456 4.90259 233.223 5.04688 230.703 6.74915C229.158 7.79302 227.371 9.21993 225.818 7.45557C223.17 4.44725 220.83 5.92283 217.751 7.78532ZM96.7226 417.627C98.0099 425.029 97.2096 432.442 96.7859 439.844C99.5264 426.353 97.6721 413.181 93.7751 400.174C94.7435 405.691 95.712 411.209 96.7226 417.627ZM78.3957 332.43C78.3957 329.478 78.3957 326.526 78.3957 323.573C77.1457 332.07 78.0359 340.419 80.2501 348.675C79.6534 343.561 79.0567 338.448 78.3957 332.43ZM222.687 354.224C222.73 355.501 221.233 356.651 222.6 358.457C223.835 352.201 225.84 346.465 225.096 339.257C224.68 342.417 224.455 344.543 224.11 346.65C223.736 348.933 223.252 351.198 222.687 354.224Z" fill="black"/>
</svg>
